<svg width="100" height="120" viewBox="0 0 100 120" fill="none" xmlns="http://www.w3.org/2000/svg">
<path fill-rule="evenodd" clip-rule="evenodd" d="M50.0013 5.72121C18.4136 5.62281 17.6929 33.17 17.6929 33.17H82.3097C82.3097 33.17 81.291 5.81721 50.0013 5.72121ZM38.5716 21.8573C40.0906 20.3398 40.0906 17.8796 38.5716 16.3622C37.0526 14.8448 34.5899 14.8448 33.0709 16.3622C31.5519 17.8796 31.5519 20.3399 33.0709 21.8573C34.5898 23.3747 37.0526 23.3747 38.5716 21.8573ZM68.057 19.74C68.4012 17.6217 66.9613 15.6258 64.8409 15.282C62.7204 14.9381 60.7225 16.3766 60.3783 18.4948C60.0341 20.6131 61.474 22.6089 63.5944 22.9528C65.7148 23.2966 67.7128 21.8582 68.057 19.74Z" fill="#293132"/>
<path d="M34.7504 9.42429C34.8633 9.58509 35.2165 9.53469 35.5384 9.30669C35.8555 9.08109 36.0189 8.76429 35.9108 8.60349L29.8734 0.0930907C29.7581 -0.0677093 29.3929 -0.014908 29.0878 0.210692C28.7659 0.450692 28.6073 0.75309 28.7154 0.91389L34.7504 9.42429Z" fill="#293132"/>
<path d="M65.2496 9.42429C65.1343 9.58509 64.7835 9.53469 64.4592 9.30669C64.1421 9.08109 63.9787 8.76429 64.0892 8.60349L70.1242 0.0930907C70.2419 -0.0677093 70.6047 -0.014908 70.9122 0.210692C71.2341 0.450692 71.3927 0.75309 71.2846 0.91389L65.2496 9.42429Z" fill="#293132"/>
<path d="M82.5787 37.0027H17.4238V63.7939H17.4839V91.8955C17.4839 92.9273 17.8942 93.9168 18.6245 94.6464C19.3549 95.376 20.3454 95.7859 21.3783 95.7859H78.6219C79.6547 95.7859 80.6453 95.376 81.3756 94.6464C82.106 93.9168 82.5163 92.9273 82.5163 91.8955V63.7939H82.5787V37.0027Z" fill="#293132"/>
<path d="M99.91 72.818C99.91 73.7277 99.7305 74.6286 99.3817 75.469C99.0329 76.3094 98.5216 77.0728 97.8772 77.7157C97.2328 78.3585 96.4679 78.8682 95.6262 79.2154C94.7844 79.5627 93.8824 79.7408 92.9717 79.7396V79.7396C91.1341 79.7396 89.3717 79.0103 88.0723 77.7123C86.773 76.4142 86.043 74.6537 86.043 72.818V41.7116C86.0462 39.8777 86.7775 38.12 88.0764 36.8242C89.3754 35.5283 91.136 34.8002 92.9717 34.7996V34.7996C94.8095 34.8002 96.5719 35.53 97.8712 36.8284C99.1705 38.1268 99.9004 39.8876 99.9004 41.7236L99.91 72.818Z" fill="#293132"/>
<path d="M13.9497 72.818C13.9497 73.7271 13.7704 74.6274 13.4221 75.4673C13.0737 76.3072 12.5631 77.0704 11.9195 77.7131C11.2758 78.3559 10.5118 78.8657 9.67086 79.2134C8.82995 79.5611 7.92868 79.7399 7.01858 79.7396V79.7396C5.18097 79.7396 3.41866 79.0103 2.11927 77.7123C0.819885 76.4142 0.0898438 74.6537 0.0898438 72.818V41.7116C0.0930252 39.8777 0.824346 38.12 2.12332 36.8242C3.42229 35.5283 5.18283 34.8002 7.01858 34.7996V34.7996C8.85683 34.7996 10.6198 35.5291 11.9197 36.8276C13.2195 38.1261 13.9497 39.8872 13.9497 41.7236V72.818Z" fill="#293132"/>
<path d="M70.3019 113.078C70.3019 113.987 70.1227 114.887 69.7743 115.727C69.426 116.567 68.9154 117.33 68.2717 117.973C67.6281 118.616 66.8639 119.125 66.023 119.473C65.1821 119.821 64.2809 120 63.3708 119.999V119.999C61.5353 119.996 59.776 119.266 58.4792 117.968C57.1825 116.67 56.4541 114.911 56.4541 113.078V81.969C56.4541 81.06 56.6333 80.1599 56.9815 79.3202C57.3297 78.4804 57.8401 77.7174 58.4835 77.0746C59.1269 76.4319 59.8907 75.9221 60.7313 75.5742C61.572 75.2264 62.4729 75.0474 63.3828 75.0474C64.2929 75.047 65.1941 75.2258 66.0351 75.5736C66.876 75.9213 67.6401 76.431 68.2837 77.0738C68.9274 77.7166 69.4379 78.4797 69.7863 79.3196C70.1346 80.1595 70.3139 81.0598 70.3139 81.969L70.3019 113.078Z" fill="#293132"/>
<path d="M43.5577 113.078C43.5577 113.987 43.3785 114.887 43.0303 115.727C42.6821 116.566 42.1717 117.329 41.5283 117.972C40.8849 118.615 40.1211 119.125 39.2804 119.472C38.4398 119.82 37.5388 119.999 36.6289 119.999V119.999C34.7913 119.999 33.029 119.27 31.7296 117.972C30.4302 116.674 29.7002 114.913 29.7002 113.078V81.969C29.7002 80.1332 30.4302 78.3727 31.7296 77.0746C33.029 75.7766 34.7913 75.0474 36.6289 75.0474V75.0474C37.5388 75.0474 38.4398 75.2264 39.2804 75.5742C40.1211 75.9221 40.8849 76.4319 41.5283 77.0746C42.1717 77.7174 42.6821 78.4804 43.0303 79.3202C43.3785 80.1599 43.5577 81.06 43.5577 81.969V113.078Z" fill="#293132"/>
</svg>
