<svg width="100" height="120" viewBox="0 0 100 120" fill="none" xmlns="http://www.w3.org/2000/svg">
<path d="M83.0268 63.7561C82.8827 48.5665 95.5196 41.2681 96.1034 40.9153C88.9897 30.5953 77.9191 29.1865 73.9719 29.0161C64.547 28.0705 55.5834 34.5193 50.8049 34.5193C46.0264 34.5193 38.646 29.1577 30.8356 29.3065C20.5578 29.4529 11.0921 35.2249 5.79469 44.3425C-4.87227 62.7097 3.07028 89.9113 13.4682 104.808C18.5518 112.092 24.6084 120.288 32.5702 119.993C40.2365 119.698 43.141 115.08 52.3953 115.08C61.6496 115.08 64.2659 120 72.3598 119.839C80.6099 119.698 85.8329 112.414 90.8805 105.106C94.4858 99.8501 97.3107 94.1009 99.2675 88.0369C99.0873 87.9553 83.1854 81.9121 83.022 63.7561" fill="#293132"/>
<path d="M67.7953 19.1616C72.0236 14.0856 74.8682 7.0296 74.0874 0C68.0043 0.24 60.6335 4.0224 56.2611 9.0936C52.3474 13.5864 48.9191 20.7648 49.8465 27.6552C56.631 28.176 63.567 24.2328 67.7953 19.1616" fill="#293132"/>
</svg>
