<svg width="150" height="100" viewBox="0 0 150 100" fill="none" xmlns="http://www.w3.org/2000/svg">
<g clip-path="url(#clip0_6981_50325)">
<path opacity="0.1" d="M82.6673 22.3436C79.3931 19.0644 75.5056 16.4631 71.2268 14.6883C66.9481 12.9135 62.3619 12 57.7304 12C53.0989 12 48.5127 12.9135 44.234 14.6883C39.9552 16.4631 36.0677 19.0644 32.7934 22.3436L25.9983 29.146L19.2031 22.3436C12.5894 15.7229 3.61935 12.0034 -5.73383 12.0034C-15.087 12.0034 -24.0571 15.7229 -30.6708 22.3436C-37.2845 28.9644 -41 37.944 -41 47.3071C-41 56.6703 -37.2845 65.6499 -30.6708 72.2706L-23.8756 79.073L25.9983 129L75.8722 79.073L82.6673 72.2706C85.9431 68.9929 88.5416 65.1013 90.3146 60.8179C92.0875 56.5346 93 51.9436 93 47.3071C93 42.6707 92.0875 38.0797 90.3146 33.7963C88.5416 29.513 85.9431 25.6213 82.6673 22.3436V22.3436Z" fill="url(#paint0_radial_6981_50325)"/>
<path opacity="0.1" d="M61.2915 42.719C59.1657 40.5888 56.6417 38.8991 53.8637 37.7462C51.0857 36.5934 48.1081 36 45.1011 36C42.094 36 39.1165 36.5934 36.3385 37.7462C33.5605 38.8991 31.0365 40.5888 28.9107 42.719L24.4989 47.1376L20.0871 42.719C15.7931 38.4183 9.96928 36.0022 3.8967 36.0022C-2.17589 36.0022 -7.99975 38.4183 -12.2937 42.719C-16.5877 47.0196 -19 52.8525 -19 58.9346C-19 65.0166 -16.5877 70.8495 -12.2937 75.1502L-7.88193 79.5688L24.4989 112L56.8797 79.5688L61.2915 75.1502C63.4183 73.0211 65.1054 70.4931 66.2565 67.7108C67.4075 64.9285 68 61.9463 68 58.9346C68 55.9228 67.4075 52.9406 66.2565 50.1583C65.1054 47.376 63.4183 44.8481 61.2915 42.719V42.719Z" fill="url(#paint1_radial_6981_50325)"/>
<path opacity="0.1" d="M35.9108 57.1276C34.2981 55.502 32.3834 54.2125 30.2759 53.3327C28.1685 52.4528 25.9096 52 23.6284 52C21.3472 52 19.0884 52.4528 16.9809 53.3327C14.8735 54.2125 12.9587 55.502 11.346 57.1276L7.99916 60.4997L4.65229 57.1276C1.3948 53.8456 -3.02331 52.0017 -7.63009 52.0017C-12.2369 52.0017 -16.655 53.8456 -19.9125 57.1276C-23.17 60.4097 -25 64.8611 -25 69.5027C-25 74.1442 -23.17 78.5957 -19.9125 81.8777L-16.5656 85.2499L7.99916 110L32.5639 85.2499L35.9108 81.8777C37.5242 80.2529 38.8041 78.3237 39.6773 76.2003C40.5505 74.077 41 71.8011 41 69.5027C41 67.2043 40.5505 64.9284 39.6773 62.805C38.8041 60.6817 37.5242 58.7525 35.9108 57.1276V57.1276Z" fill="url(#paint2_radial_6981_50325)"/>
</g>
<defs>
<radialGradient id="paint0_radial_6981_50325" cx="0" cy="0" r="1" gradientUnits="userSpaceOnUse" gradientTransform="translate(73 102) rotate(-99.8906) scale(98.971 114.431)">
<stop stop-color="white"/>
<stop offset="1" stop-color="white" stop-opacity="0"/>
</radialGradient>
<radialGradient id="paint1_radial_6981_50325" cx="0" cy="0" r="1" gradientUnits="userSpaceOnUse" gradientTransform="translate(54.5 40.5) rotate(104.804) scale(72.4034 83.6775)">
<stop stop-color="white"/>
<stop offset="1" stop-color="white" stop-opacity="0"/>
</radialGradient>
<radialGradient id="paint2_radial_6981_50325" cx="0" cy="0" r="1" gradientUnits="userSpaceOnUse" gradientTransform="translate(0.500001 102) rotate(-46.7014) scale(71.4493 82.1475)">
<stop stop-color="white"/>
<stop offset="1" stop-color="white" stop-opacity="0"/>
</radialGradient>
<clipPath id="clip0_6981_50325">
<rect width="150" height="100" fill="white"/>
</clipPath>
</defs>
</svg>
