<svg width="150" height="100" viewBox="0 0 150 100" fill="none" xmlns="http://www.w3.org/2000/svg">
<g clip-path="url(#clip0_6981_50330)">
<path opacity="0.1" d="M21 76.9032L79.7411 -24.4464C91.1774 -35.1664 109.683 -49.1373 96.3758 -23.4091C79.7411 8.75117 93.7766 27.4248 84.4196 53.8792C76.934 75.0427 38.8476 77.5949 21 76.9032Z" fill="url(#paint0_radial_6981_50330)"/>
<path opacity="0.1" d="M29 90.8805L100.958 -34.2642C114.967 -47.5012 137.637 -64.7521 121.335 -32.9834C100.958 6.72754 118.151 29.7854 106.689 62.4508C97.5192 88.5832 50.8633 91.7345 29 90.8805Z" fill="url(#paint1_radial_6981_50330)"/>
<path opacity="0.1" d="M59 66.915L110.398 -22.0964C120.405 -31.5114 136.598 -43.7814 124.954 -21.1854C110.398 7.05973 122.68 23.46 114.492 46.6939C107.942 65.281 74.6166 67.5224 59 66.915Z" fill="url(#paint2_radial_6981_50330)"/>
</g>
<defs>
<radialGradient id="paint0_radial_6981_50330" cx="0" cy="0" r="1" gradientUnits="userSpaceOnUse" gradientTransform="translate(67.2651 80.7854) rotate(-107.499) scale(96.8114 68.9034)">
<stop offset="0.0383383" stop-color="white"/>
<stop offset="1" stop-color="white" stop-opacity="0"/>
</radialGradient>
<radialGradient id="paint1_radial_6981_50330" cx="0" cy="0" r="1" gradientUnits="userSpaceOnUse" gradientTransform="translate(41.6875 98.0559) rotate(-35.6033) scale(78.0225 55.6749)">
<stop offset="0.0383383" stop-color="white"/>
<stop offset="1" stop-color="white" stop-opacity="0"/>
</radialGradient>
<radialGradient id="paint2_radial_6981_50330" cx="0" cy="0" r="1" gradientUnits="userSpaceOnUse" gradientTransform="translate(76.5 13.5) rotate(106.65) scale(55.8413 39.5939)">
<stop offset="0.0383383" stop-color="white"/>
<stop offset="1" stop-color="white" stop-opacity="0"/>
</radialGradient>
<clipPath id="clip0_6981_50330">
<rect width="150" height="100" fill="white"/>
</clipPath>
</defs>
</svg>
