<svg width="150" height="100" viewBox="0 0 150 100" fill="none" xmlns="http://www.w3.org/2000/svg">
<g clip-path="url(#clip0_6981_50340)">
<path opacity="0.1" d="M7 19.1118C7 3.23229 19.7061 -9.67769 35.5 -9.99406C51.2939 -9.67769 64 3.23229 64 19.1118C64 44.6588 38.4688 49.4118 7 91V19.1118Z" fill="url(#paint0_radial_6981_50340)"/>
<path opacity="0.1" d="M-7 21.7148C-7 2.86039 31.1613 -14.5815 50.7224 -14.9926C69.7198 -14.6077 85 0.709622 85 19.5488C85 49.8671 30.8683 77.6446 -7 127V21.7148Z" fill="url(#paint1_radial_6981_50340)"/>
<path opacity="0.1" d="M70.5 26C70.5 8.53973 35.4497 -7.61241 17.4833 -7.99313C0.0345612 -7.63671 -14 6.54799 -14 23.9941C-14 52.0706 35.7188 77.7941 70.5 123.5V26Z" fill="url(#paint2_radial_6981_50340)"/>
<path opacity="0.1" d="M60 11.9941C60 -5.45758 45.9565 -19.6458 28.5 -19.9935C11.0435 -19.6458 -3 -5.45758 -3 11.9941C-3 40.0706 25.2188 45.2941 60 91V11.9941Z" fill="url(#paint3_radial_6981_50340)"/>
</g>
<defs>
<radialGradient id="paint0_radial_6981_50340" cx="0" cy="0" r="1" gradientUnits="userSpaceOnUse" gradientTransform="translate(96.6562 16.7353) rotate(121.195) scale(118.072 66.6571)">
<stop stop-color="white"/>
<stop offset="1" stop-color="white" stop-opacity="0"/>
</radialGradient>
<radialGradient id="paint1_radial_6981_50340" cx="0" cy="0" r="1" gradientUnits="userSpaceOnUse" gradientTransform="translate(16.4083 112.422) rotate(-43.4555) scale(134.237 75.9502)">
<stop stop-color="white"/>
<stop offset="1" stop-color="white" stop-opacity="0"/>
</radialGradient>
<radialGradient id="paint2_radial_6981_50340" cx="0" cy="0" r="1" gradientUnits="userSpaceOnUse" gradientTransform="translate(37.5 98) rotate(-128.873) scale(62.9385 35.6246)">
<stop stop-color="white"/>
<stop offset="1" stop-color="white" stop-opacity="0"/>
</radialGradient>
<radialGradient id="paint3_radial_6981_50340" cx="0" cy="0" r="1" gradientUnits="userSpaceOnUse" gradientTransform="translate(-39.0937 9.38235) rotate(58.6606) scale(129.961 73.5611)">
<stop stop-color="white"/>
<stop offset="1" stop-color="white" stop-opacity="0"/>
</radialGradient>
<clipPath id="clip0_6981_50340">
<rect width="150" height="100" fill="white"/>
</clipPath>
</defs>
</svg>
