<svg width="49" height="48" viewBox="0 0 49 48" fill="none" xmlns="http://www.w3.org/2000/svg">
<path d="M6.16699 40C6.16699 41.1046 7.06242 42 8.16699 42C9.27156 42 10.167 41.1046 10.167 40H6.16699ZM38.167 40C38.167 41.1046 39.0624 42 40.167 42C41.2716 42 42.167 41.1046 42.167 40H38.167ZM10.167 8C10.167 6.89543 9.27156 6 8.16699 6C7.06242 6 6.16699 6.89543 6.16699 8H10.167ZM42.167 8C42.167 6.89543 41.2716 6 40.167 6C39.0624 6 38.167 6.89543 38.167 8H42.167ZM4.16699 4C3.06242 4 2.16699 4.89543 2.16699 6C2.16699 7.10457 3.06242 8 4.16699 8V4ZM44.167 8C45.2716 8 46.167 7.10457 46.167 6C46.167 4.89543 45.2716 4 44.167 4V8ZM4.16699 40C3.06242 40 2.16699 40.8954 2.16699 42C2.16699 43.1046 3.06242 44 4.16699 44V40ZM44.167 44C45.2716 44 46.167 43.1046 46.167 42C46.167 40.8954 45.2716 40 44.167 40V44ZM10.167 40C10.167 32.268 16.435 26 24.167 26V22C14.2259 22 6.16699 30.0589 6.16699 40H10.167ZM24.167 26C31.899 26 38.167 32.268 38.167 40H42.167C42.167 30.0589 34.1081 22 24.167 22V26ZM6.16699 8C6.16699 17.9411 14.2259 26 24.167 26V22C16.435 22 10.167 15.732 10.167 8H6.16699ZM24.167 26C34.1081 26 42.167 17.9411 42.167 8H38.167C38.167 15.732 31.899 22 24.167 22V26ZM4.16699 8H44.167V4H4.16699V8ZM4.16699 44H44.167V40H4.16699V44Z" fill="#293132"/>
</svg>
