<?xml version="1.0" encoding="utf-8"?>
<!-- Generator: Adobe Illustrator 22.1.0, SVG Export Plug-In . SVG Version: 6.00 Build 0)  -->
<svg version="1.1" id="Camada_1" xmlns="http://www.w3.org/2000/svg" xmlns:xlink="http://www.w3.org/1999/xlink" x="0px" y="0px"
	 viewBox="0 0 1366 316" style="enable-background:new 0 0 1366 316;" xml:space="preserve">
<style type="text/css">
	.st0{fill:#262424;}
	.st1{fill:#FFFFFF;}
</style>
<g>
	<g>
		<g>
			<path class="st0" d="M277.4,290.4h17v6.4h-3.1V293h-7.9v8.4h8l-0.3,2.6h-7.7v8.9h8.1v-3.8h3.1v6.4h-17.3v-2.6h2.8V293H277
				L277.4,290.4z"/>
			<path class="st0" d="M305.3,290.4h9.4c9.2,0,12.4,3.3,12.4,12.6c0,9.3-3.2,12.5-12.4,12.5h-9.5v-2.6h2.8V293h-3.1L305.3,290.4z
				 M311.3,312.9h3.4c6.6,0,8.9-2.5,8.9-9.9c0-7.5-2.3-10-8.9-10h-3.4V312.9z"/>
			<path class="st0" d="M337.7,290.4h8.9v2.6h-2.8v19.9h3.1l-0.3,2.6h-8.9v-2.6h2.8V293h-3.1L337.7,290.4z"/>
			<path class="st0" d="M377,290.4v7H374V293h-5.9v19.9h3.9l-0.3,2.6h-10.5v-2.6h3.6V293h-5.9v4.3h-3.1v-7H377z"/>
			<path class="st0" d="M406.2,303c0,9-3.1,13-10.2,13c-7.1,0-10.3-4-10.3-13c0-9,3.2-13,10.3-13C403.1,290,406.2,294,406.2,303z
				 M389.2,303c0,7.1,2,10.3,6.7,10.3c4.7,0,6.8-3.1,6.8-10.3c0-7.2-2-10.3-6.8-10.3C391.2,292.7,389.2,295.8,389.2,303z"/>
			<path class="st0" d="M416.8,290.4h10.3c5.8,0,8.4,2.3,8.4,7.3c0,3.9-1.8,6.2-5.8,7l5.1,8.2h2.8l-0.3,2.6h-4.6l-6.3-10.4h-3.5v7.8
				h3.1l-0.3,2.6h-8.9v-2.6h2.8V293h-3.1L416.8,290.4z M422.8,302.6h3.9c3.6,0,5.3-1.5,5.3-4.7c0-3.3-1.7-4.8-5.3-4.8h-4V302.6z"/>
			<path class="st0" d="M447.6,312.9l7.8-22.5h3.1l7.8,22.5h3.1l-0.3,2.6h-8.9v-2.6h2.8l-1.8-5.2h-8.7l-1.7,5.2h3.1l-0.3,2.6h-8.7
				v-2.6H447.6z M453.5,305h6.9l-1.8-5.3c-0.6-1.9-1.2-4-1.6-6.1h-0.2c-0.4,2-0.9,3.9-1.6,6.1L453.5,305z"/>
			<path class="st0" d="M491.8,290.4h9.4c9.2,0,12.4,3.3,12.4,12.6c0,9.3-3.2,12.5-12.4,12.5h-9.5v-2.6h2.8V293h-3.1L491.8,290.4z
				 M497.9,312.9h3.4c6.6,0,8.9-2.5,8.9-9.9c0-7.5-2.3-10-8.9-10h-3.4V312.9z"/>
			<path class="st0" d="M524.2,290.4h17v6.4h-3.1V293h-7.9v8.4h8l-0.3,2.6h-7.7v8.9h8.1v-3.8h3.1v6.4h-17.3v-2.6h2.8V293h-3.1
				L524.2,290.4z"/>
			<path class="st0" d="M564,290.5h17v6.4H578v-3.8h-7.9v8.4h8l-0.3,2.6h-7.7v8.9h8.1v-3.8h3.1v6.4h-17.3V313h2.8v-19.9h-3.1
				L564,290.5z"/>
			<path class="st0" d="M599.8,290.1c2,0,4,0.3,6.2,0.7v5.8h-3.1V293c-1-0.2-2-0.3-3.1-0.3c-3.5,0-5,1.2-5,4c0,2.1,1.3,3.4,4,4.1
				l2.5,0.7c3.9,1,5.7,3.2,5.7,7c0,5.2-2.7,7.5-8.8,7.5c-2.3,0-4.5-0.3-6.8-0.9v-5.9h3.1v3.7c1.2,0.3,2.3,0.4,3.7,0.4
				c3.8,0,5.4-1.5,5.4-4.7c0-2.3-1.2-3.6-3.9-4.3l-2.6-0.7c-4-1.1-5.8-3.1-5.8-6.8C591.4,292.3,594.2,290.1,599.8,290.1z"/>
			<path class="st0" d="M627.7,290.5c5.9,0,8.8,2.5,8.8,7.6c0,5.3-2.8,8-8.8,8h-3.9v7h3.6l-0.3,2.6h-9.5V313h2.8v-19.9h-3.1l0.4-2.6
				H627.7z M623.8,303.5h3.9c3.6,0,5.4-1.8,5.4-5.3c0-3.4-1.7-5-5.4-5h-3.9V303.5z"/>
			<path class="st0" d="M645.7,290.5h17v6.4h-3.1v-3.8h-7.9v8.4h8l-0.3,2.6h-7.7v8.9h8.1v-3.8h3.1v6.4h-17.3V313h2.8v-19.9h-3.1
				L645.7,290.5z"/>
			<path class="st0" d="M687.7,293.2c-1.2-0.2-2.4-0.4-3.6-0.4c-5.1,0-7.4,3.2-7.4,10.3c0,7,2.4,10.3,7.7,10.3
				c1.4,0,2.5-0.1,3.7-0.4v-3.8h3.1v5.9c-2.3,0.7-4.4,0.9-6.9,0.9c-7.6,0-11.1-4-11.1-12.8c0-9,3.4-13.1,10.9-13.1
				c2.2,0,4.3,0.3,6.7,0.8v5.8h-3.1V293.2z"/>
			<path class="st0" d="M702.2,290.5h8.9v2.6h-2.8V313h3.1l-0.3,2.6h-8.9V313h2.8v-19.9h-3.1L702.2,290.5z"/>
			<path class="st0" d="M722.7,313l7.8-22.5h3.1l7.8,22.5h3.1l-0.3,2.6h-8.9V313h2.8l-1.8-5.2h-8.7l-1.7,5.2h3.1l-0.3,2.6H720V313
				H722.7z M728.6,305.2h6.9l-1.8-5.3c-0.6-1.9-1.2-4-1.6-6.1h-0.2c-0.4,2-0.9,3.9-1.6,6.1L728.6,305.2z"/>
			<path class="st0" d="M753.1,290.5h8.8v2.6h-2.8V313h8.1v-4h3.1v6.6H753V313h2.8v-19.9h-3.1L753.1,290.5z"/>
			<path class="st0" d="M780.3,290.5h8.9v2.6h-2.8V313h3.1l-0.3,2.6h-8.9V313h2.8v-19.9H780L780.3,290.5z"/>
			<path class="st0" d="M799.9,290.5h9.4c9.2,0,12.4,3.3,12.4,12.6c0,9.3-3.2,12.5-12.4,12.5h-9.5V313h2.8v-19.9h-3.1L799.9,290.5z
				 M806,313h3.4c6.6,0,8.9-2.5,8.9-9.9c0-7.5-2.3-10-8.9-10H806V313z"/>
			<path class="st0" d="M832.1,313l7.8-22.5h3.1l7.8,22.5h3.1l-0.3,2.6h-8.9V313h2.8l-1.8-5.2H837l-1.7,5.2h3.1l-0.3,2.6h-8.7V313
				H832.1z M837.9,305.2h6.9l-1.8-5.3c-0.6-1.9-1.2-4-1.6-6.1h-0.2c-0.4,2-0.9,3.9-1.6,6.1L837.9,305.2z"/>
			<path class="st0" d="M862.4,290.5h9.4c9.2,0,12.4,3.3,12.4,12.6c0,9.3-3.2,12.5-12.4,12.5h-9.5V313h2.8v-19.9h-3.1L862.4,290.5z
				 M868.5,313h3.4c6.6,0,8.9-2.5,8.9-9.9c0-7.5-2.3-10-8.9-10h-3.4V313z"/>
			<path class="st0" d="M894.8,290.5h17v6.4h-3.1v-3.8h-7.9v8.4h8l-0.3,2.6h-7.7v8.9h8.1v-3.8h3.1v6.4h-17.3V313h2.8v-19.9h-3.1
				L894.8,290.5z"/>
			<path class="st0" d="M930.6,290.1c2,0,4,0.3,6.2,0.7v5.8h-3.1V293c-1-0.2-2-0.3-3.1-0.3c-3.5,0-5,1.2-5,4c0,2.1,1.3,3.4,4.1,4.1
				l2.5,0.7c3.9,1,5.7,3.2,5.7,7c0,5.2-2.7,7.5-8.8,7.5c-2.3,0-4.5-0.3-6.8-0.9v-5.9h3.1v3.7c1.2,0.3,2.3,0.4,3.7,0.4
				c3.8,0,5.4-1.5,5.4-4.7c0-2.3-1.2-3.6-3.9-4.3l-2.6-0.7c-4-1.1-5.8-3.1-5.8-6.8C922.1,292.3,925,290.1,930.6,290.1z"/>
			<path class="st0" d="M964.1,290.5h6.6l5.5,13c1.1,2.5,1.6,4.1,2,5.7h0.2c0.6-2,1.1-3.7,2-5.8l5.5-13h6.7v2.6h-2.8l0.8,19.9h3.1
				l-0.3,2.6h-8.8V313h2.8l-0.5-11.3c-0.1-2.7-0.1-4.4,0-6.1l-0.2,0c-0.6,2-1.2,3.6-2.1,5.7l-4.7,11.3h-3l-4.9-11.4
				c-1.1-2.6-1.7-4.2-2.2-5.7l-0.2,0c0.1,1.9,0.1,3.6,0,6.1l-0.5,11.4h3.1l-0.3,2.6h-8.7V313h2.8l0.8-19.9h-3.1L964.1,290.5z"/>
			<path class="st0" d="M1003.7,290.5h17v6.4h-3.1v-3.8h-7.9v8.4h8l-0.3,2.6h-7.7v8.9h8.1v-3.8h3.1v6.4h-17.3V313h2.8v-19.9h-3.1
				L1003.7,290.5z M1017.2,281.7l1.7,2.6l-8,4.3l-1.1-1.8L1017.2,281.7z"/>
			<path class="st0" d="M1031.6,290.5h9.4c9.2,0,12.4,3.3,12.4,12.6c0,9.3-3.2,12.5-12.4,12.5h-9.5V313h2.8v-19.9h-3.1L1031.6,290.5
				z M1037.6,313h3.4c6.6,0,8.9-2.5,8.9-9.9c0-7.5-2.3-10-8.9-10h-3.4V313z"/>
			<path class="st0" d="M1064.1,290.5h8.9v2.6h-2.8V313h3.1l-0.3,2.6h-8.9V313h2.8v-19.9h-3.1L1064.1,290.5z"/>
			<path class="st0" d="M1098,293.2c-1.2-0.2-2.4-0.4-3.6-0.4c-5.1,0-7.4,3.2-7.4,10.3c0,7,2.4,10.3,7.7,10.3c1.4,0,2.5-0.1,3.7-0.4
				v-3.8h3.1v5.9c-2.3,0.7-4.4,0.9-6.9,0.9c-7.6,0-11.1-4-11.1-12.8c0-9,3.4-13.1,10.9-13.1c2.2,0,4.3,0.3,6.7,0.8v5.8h-3.1V293.2z"
				/>
			<path class="st0" d="M1113.3,313l7.8-22.5h3.1l7.8,22.5h3.1l-0.3,2.6h-8.9V313h2.8l-1.8-5.2h-8.7l-1.7,5.2h3.1l-0.3,2.6h-8.7V313
				H1113.3z M1119.1,305.2h6.9l-1.8-5.3c-0.6-1.9-1.2-4-1.6-6.1h-0.2c-0.4,2-0.9,3.9-1.6,6.1L1119.1,305.2z"/>
			<path class="st0" d="M1151.7,290.1c2,0,4,0.3,6.2,0.7v5.8h-3.1V293c-1-0.2-2-0.3-3.1-0.3c-3.5,0-5,1.2-5,4c0,2.1,1.3,3.4,4.1,4.1
				l2.5,0.7c3.9,1,5.7,3.2,5.7,7c0,5.2-2.7,7.5-8.8,7.5c-2.3,0-4.5-0.3-6.8-0.9v-5.9h3.1v3.7c1.2,0.3,2.3,0.4,3.7,0.4
				c3.8,0,5.4-1.5,5.4-4.7c0-2.3-1.2-3.6-3.9-4.3l-2.6-0.7c-4-1.1-5.8-3.1-5.8-6.8C1143.2,292.3,1146.1,290.1,1151.7,290.1z"/>
			<path class="st0" d="M1180.2,290.5h8.8v2.6h-2.8V313h8.1v-4h3.1v6.6h-17.3V313h2.8v-19.9h-3.1L1180.2,290.5z"/>
			<path class="st0" d="M1222.3,290.5v7h-3.1v-4.3h-5.9V313h3.9l-0.3,2.6h-10.5V313h3.6v-19.9h-5.9v4.3h-3.1v-7H1222.3z"/>
			<path class="st0" d="M1231.4,290.5h9.4c9.2,0,12.4,3.3,12.4,12.6c0,9.3-3.2,12.5-12.4,12.5h-9.5V313h2.8v-19.9h-3.1L1231.4,290.5
				z M1237.5,313h3.4c6.6,0,8.9-2.5,8.9-9.9c0-7.5-2.3-10-8.9-10h-3.4V313z"/>
			<path class="st0" d="M1263.6,313l7.8-22.5h3.1l7.8,22.5h3.1l-0.3,2.6h-8.9V313h2.8l-1.8-5.2h-8.7l-1.7,5.2h3.1l-0.3,2.6h-8.7V313
				H1263.6z M1269.4,305.2h6.9l-1.8-5.3c-0.6-1.9-1.2-4-1.6-6.1h-0.2c-0.4,2-0.9,3.9-1.6,6.1L1269.4,305.2z"/>
		</g>
		<g>
			<g>
				<path class="st0" d="M459.3,247.6h-18.2V79l-64.9,168.6h-17.6L295.8,80.8v166.7h-18.5V70.2H311l56.6,149.7l57.8-149.7h34V247.6z
					"/>
				<path class="st0" d="M663.7,247.6H540.4V70.5h123.3v16.2H558.8V151h104.9v16.2H558.8v64.1h104.9V247.6z"/>
				<path class="st0" d="M869.8,220.8L846.3,242c-4.2,3.7-9.1,5.6-14.9,5.6H734V70.5h96.5c5.8,0,10.6,1.8,14.6,5.3l24.4,21.5
					c4.2,3.7,6.3,8.2,6.3,13.3v97.2C875.8,212.9,873.8,217.2,869.8,220.8z M857.6,111.2c0-1.4-0.6-2.7-1.8-3.7l-22-19.2
					c-1.2-1.1-2.6-1.6-4.2-1.6h-76.6v144.7h76.9c1.6,0,3-0.5,4.2-1.6l21.7-20c1.2-1.1,1.8-2.3,1.8-3.7V111.2z"/>
				<path class="st0" d="M1084.6,70.2l-71.2,98.9v78.5H995v-78.5l-71.5-98.9h21.7l58.5,81.1l58.8-81.1H1084.6z"/>
				<path class="st0" d="M1285.4,247.6h-30.1l-93.5-161.4v161.4h-18.5V70.2h30.4l93.2,161.7V70.2h18.5V247.6z"/>
			</g>
		</g>
		<path class="st0" d="M195.9,64.5c-0.1-0.1-0.1-0.1-0.2-0.2c-0.1-0.1-0.2-0.3-0.4-0.4c0,0,0,0,0,0c0,0,0,0,0,0l-14.4-7.6
			c-0.5-0.3-1.1-0.3-1.6,0L99.2,98.5L19.1,56.3c-0.5-0.3-1.1-0.3-1.6,0L3.1,63.8c0,0,0,0,0,0c0,0,0,0,0,0c-0.2,0.1-0.3,0.3-0.4,0.4
			c-0.1,0.1-0.2,0.1-0.2,0.2c-0.2,0.3-0.2,0.6-0.2,0.9V249c0,0.6,0.4,1.2,0.9,1.5l20.8,11c0.2,0.1,0.3,0.1,0.5,0.1
			c0.1,0,0.2,0.1,0.3,0.1c0,0,0,0,0,0c0.1,0,0.2,0,0.3-0.1c0.2,0,0.4,0,0.5-0.1l73.7-38.8l73.7,38.8c0.3,0.1,0.5,0.2,0.8,0.2
			c0.3,0,0.6-0.1,0.8-0.2l20.8-11c0.6-0.3,0.9-0.9,0.9-1.5V65.4C196.2,65.1,196.1,64.8,195.9,64.5z M151.1,120.1v5.8l-5.5-2.9
			L151.1,120.1z M151.1,116.2l-9.2,4.9l-10.4-5.5l19.6-10.3V116.2z M180.1,59.8l10.7,5.6l-77.3,40.7l-10.6-5.6L180.1,59.8z
			 M18.3,59.8l132.8,70.1v11.1L7.6,65.4L18.3,59.8z M5.6,68.2L152,145.3c0.3,0.1,0.5,0.2,0.8,0.2c0,0,0,0,0,0c0.3,0,0.6-0.1,0.9-0.2
			c0.5-0.3,0.8-0.9,0.8-1.5v-40.3l17.3-9.1v162.8L60.1,198.2l10.6-5.6l81.3,42.8c0.3,0.1,0.5,0.2,0.8,0.2c0,0,0,0,0,0
			c0.3,0,0.6-0.1,0.9-0.2c0.5-0.3,0.8-0.9,0.8-1.5v-30c0-0.6-0.4-1.2-0.9-1.5l-93.6-49.3l10.6-5.6l81.3,42.8
			c0.3,0.1,0.5,0.2,0.8,0.2c0,0,0,0,0,0c0.3,0,0.6-0.1,0.9-0.2c0.5-0.3,0.8-0.9,0.8-1.5v-30c0-0.6-0.4-1.2-0.9-1.5L25.4,89.9
			c-0.5-0.3-1.2-0.3-1.7,0.1c-0.5,0.3-0.8,0.9-0.8,1.5L23,257.1L5.6,248V68.2z M145.6,168.1l5.5-2.9v5.8L145.6,168.1z M151.1,161.2
			l-9.2,4.9l-10.4-5.5l10.5-5.5l9.1,4.8V161.2z M138.3,153.2l-10.5,5.5l-10.6-5.6l10.5-5.5L138.3,153.2z M123.9,145.6l-10.5,5.5
			l-10.6-5.6l10.4-5.5l8.2,4.3L123.9,145.6z M99.2,143.6l-10.4-5.5l10.4-5.5l10.4,5.5L99.2,143.6z M151.1,186l-76.7-40.4L85,140
			l66.1,34.9V186z M47.2,125.9v-5.8l5.5,2.9L47.2,125.9z M47.2,129.8l23.3-12.3l10.5,5.5l-33.9,17.8V129.8z M66.8,115.6l-10.4,5.5
			l-9.2-4.9v-10.9L66.8,115.6z M151.1,231.1l-76.7-40.4l10.6-5.6l66.1,34.9V231.1z M151.1,216.1l-19.6-10.4l10.5-5.5l9.1,4.8V216.1z
			 M138.3,198.2l-10.5,5.5l-10.6-5.6l10.5-5.5L138.3,198.2z M113.4,196.2l-10.6-5.6l10.4-5.5l10.6,5.6L113.4,196.2z M109.6,183.2
			l-10.4,5.5l-10.4-5.5l10.4-5.5L109.6,183.2z M47.2,171v-5.8l5.5,2.9L47.2,171z M47.2,174.9l23.3-12.3l10.5,5.5L47.2,186V174.9z
			 M66.8,160.6l-10.4,5.5l-9.2-4.9v-1.3l9.1-4.8L66.8,160.6z M47.2,205l9.1-4.8l9.5,5l1,0.5l-8.9,4.7l-10.7,5.6V205z M47.2,220
			l23.3-12.3l10.5,5.5l-33.9,17.8V220z M26.4,257.1V94.3l17.3,9.1v40.3c0,0.6,0.3,1.2,0.8,1.5c0.3,0.2,0.6,0.2,0.9,0.2c0,0,0,0,0,0
			c0.3,0,0.6-0.1,0.8-0.2L84.8,125l10.6,5.6l-50.8,26.7c-0.6,0.3-0.9,0.9-0.9,1.5v30c0,0.6,0.3,1.2,0.8,1.5c0.3,0.2,0.6,0.2,0.9,0.2
			c0,0,0,0,0,0c0.3,0,0.6-0.1,0.8-0.2l38.5-20.3l10.6,5.6l-50.8,26.7c-0.6,0.3-0.9,0.9-0.9,1.5v30c0,0.6,0.3,1.2,0.8,1.5
			c0.3,0.2,0.6,0.2,0.9,0.2c0,0,0,0,0,0c0.3,0,0.6-0.1,0.8-0.2l38.5-20.3l10.6,5.6L26.4,257.1z M192.7,248l-17.3,9.1
			c0,0,0-42.3,0-42.3l0-123.4c0-0.6-0.3-1.2-0.8-1.5c-0.3-0.2-0.6-0.2-0.9-0.2c0,0,0,0,0,0c-0.3,0-0.6,0.1-0.8,0.2l-45.1,23.7
			l-10.6-5.6l75.6-39.8V248z"/>
		<g>
			<path class="st1" d="M277.4,290.4h17v6.4h-3.1V293h-7.9v8.4h8l-0.3,2.6h-7.7v8.9h8.1v-3.8h3.1v6.4h-17.3v-2.6h2.8V293H277
				L277.4,290.4z"/>
			<path class="st1" d="M305.3,290.4h9.4c9.2,0,12.4,3.3,12.4,12.6c0,9.3-3.2,12.5-12.4,12.5h-9.5v-2.6h2.8V293h-3.1L305.3,290.4z
				 M311.3,312.9h3.4c6.6,0,8.9-2.5,8.9-9.9c0-7.5-2.3-10-8.9-10h-3.4V312.9z"/>
			<path class="st1" d="M337.7,290.4h8.9v2.6h-2.8v19.9h3.1l-0.3,2.6h-8.9v-2.6h2.8V293h-3.1L337.7,290.4z"/>
			<path class="st1" d="M377,290.4v7H374V293h-5.9v19.9h3.9l-0.3,2.6h-10.5v-2.6h3.6V293h-5.9v4.3h-3.1v-7H377z"/>
			<path class="st1" d="M406.2,303c0,9-3.1,13-10.2,13c-7.1,0-10.3-4-10.3-13c0-9,3.2-13,10.3-13C403.1,290,406.2,294,406.2,303z
				 M389.2,303c0,7.1,2,10.3,6.7,10.3c4.7,0,6.8-3.1,6.8-10.3c0-7.2-2-10.3-6.8-10.3C391.2,292.7,389.2,295.8,389.2,303z"/>
			<path class="st1" d="M416.8,290.4h10.3c5.8,0,8.4,2.3,8.4,7.3c0,3.9-1.8,6.2-5.8,7l5.1,8.2h2.8l-0.3,2.6h-4.6l-6.3-10.4h-3.5v7.8
				h3.1l-0.3,2.6h-8.9v-2.6h2.8V293h-3.1L416.8,290.4z M422.8,302.6h3.9c3.6,0,5.3-1.5,5.3-4.7c0-3.3-1.7-4.8-5.3-4.8h-4V302.6z"/>
			<path class="st1" d="M447.6,312.9l7.8-22.5h3.1l7.8,22.5h3.1l-0.3,2.6h-8.9v-2.6h2.8l-1.8-5.2h-8.7l-1.7,5.2h3.1l-0.3,2.6h-8.7
				v-2.6H447.6z M453.5,305h6.9l-1.8-5.3c-0.6-1.9-1.2-4-1.6-6.1h-0.2c-0.4,2-0.9,3.9-1.6,6.1L453.5,305z"/>
			<path class="st1" d="M491.8,290.4h9.4c9.2,0,12.4,3.3,12.4,12.6c0,9.3-3.2,12.5-12.4,12.5h-9.5v-2.6h2.8V293h-3.1L491.8,290.4z
				 M497.9,312.9h3.4c6.6,0,8.9-2.5,8.9-9.9c0-7.5-2.3-10-8.9-10h-3.4V312.9z"/>
			<path class="st1" d="M524.2,290.4h17v6.4h-3.1V293h-7.9v8.4h8l-0.3,2.6h-7.7v8.9h8.1v-3.8h3.1v6.4h-17.3v-2.6h2.8V293h-3.1
				L524.2,290.4z"/>
			<path class="st1" d="M564,290.5h17v6.4H578v-3.8h-7.9v8.4h8l-0.3,2.6h-7.7v8.9h8.1v-3.8h3.1v6.4h-17.3V313h2.8v-19.9h-3.1
				L564,290.5z"/>
			<path class="st1" d="M599.8,290.1c2,0,4,0.3,6.2,0.7v5.8h-3.1V293c-1-0.2-2-0.3-3.1-0.3c-3.5,0-5,1.2-5,4c0,2.1,1.3,3.4,4,4.1
				l2.5,0.7c3.9,1,5.7,3.2,5.7,7c0,5.2-2.7,7.5-8.8,7.5c-2.3,0-4.5-0.3-6.8-0.9v-5.9h3.1v3.7c1.2,0.3,2.3,0.4,3.7,0.4
				c3.8,0,5.4-1.5,5.4-4.7c0-2.3-1.2-3.6-3.9-4.3l-2.6-0.7c-4-1.1-5.8-3.1-5.8-6.8C591.4,292.3,594.2,290.1,599.8,290.1z"/>
			<path class="st1" d="M627.7,290.5c5.9,0,8.8,2.5,8.8,7.6c0,5.3-2.8,8-8.8,8h-3.9v7h3.6l-0.3,2.6h-9.5V313h2.8v-19.9h-3.1l0.4-2.6
				H627.7z M623.8,303.5h3.9c3.6,0,5.4-1.8,5.4-5.3c0-3.4-1.7-5-5.4-5h-3.9V303.5z"/>
			<path class="st1" d="M645.7,290.5h17v6.4h-3.1v-3.8h-7.9v8.4h8l-0.3,2.6h-7.7v8.9h8.1v-3.8h3.1v6.4h-17.3V313h2.8v-19.9h-3.1
				L645.7,290.5z"/>
			<path class="st1" d="M687.7,293.2c-1.2-0.2-2.4-0.4-3.6-0.4c-5.1,0-7.4,3.2-7.4,10.3c0,7,2.4,10.3,7.7,10.3
				c1.4,0,2.5-0.1,3.7-0.4v-3.8h3.1v5.9c-2.3,0.7-4.4,0.9-6.9,0.9c-7.6,0-11.1-4-11.1-12.8c0-9,3.4-13.1,10.9-13.1
				c2.2,0,4.3,0.3,6.7,0.8v5.8h-3.1V293.2z"/>
			<path class="st1" d="M702.2,290.5h8.9v2.6h-2.8V313h3.1l-0.3,2.6h-8.9V313h2.8v-19.9h-3.1L702.2,290.5z"/>
			<path class="st1" d="M722.7,313l7.8-22.5h3.1l7.8,22.5h3.1l-0.3,2.6h-8.9V313h2.8l-1.8-5.2h-8.7l-1.7,5.2h3.1l-0.3,2.6H720V313
				H722.7z M728.6,305.2h6.9l-1.8-5.3c-0.6-1.9-1.2-4-1.6-6.1h-0.2c-0.4,2-0.9,3.9-1.6,6.1L728.6,305.2z"/>
			<path class="st1" d="M753.1,290.5h8.8v2.6h-2.8V313h8.1v-4h3.1v6.6H753V313h2.8v-19.9h-3.1L753.1,290.5z"/>
			<path class="st1" d="M780.3,290.5h8.9v2.6h-2.8V313h3.1l-0.3,2.6h-8.9V313h2.8v-19.9H780L780.3,290.5z"/>
			<path class="st1" d="M799.9,290.5h9.4c9.2,0,12.4,3.3,12.4,12.6c0,9.3-3.2,12.5-12.4,12.5h-9.5V313h2.8v-19.9h-3.1L799.9,290.5z
				 M806,313h3.4c6.6,0,8.9-2.5,8.9-9.9c0-7.5-2.3-10-8.9-10H806V313z"/>
			<path class="st1" d="M832.1,313l7.8-22.5h3.1l7.8,22.5h3.1l-0.3,2.6h-8.9V313h2.8l-1.8-5.2H837l-1.7,5.2h3.1l-0.3,2.6h-8.7V313
				H832.1z M837.9,305.2h6.9l-1.8-5.3c-0.6-1.9-1.2-4-1.6-6.1h-0.2c-0.4,2-0.9,3.9-1.6,6.1L837.9,305.2z"/>
			<path class="st1" d="M862.4,290.5h9.4c9.2,0,12.4,3.3,12.4,12.6c0,9.3-3.2,12.5-12.4,12.5h-9.5V313h2.8v-19.9h-3.1L862.4,290.5z
				 M868.5,313h3.4c6.6,0,8.9-2.5,8.9-9.9c0-7.5-2.3-10-8.9-10h-3.4V313z"/>
			<path class="st1" d="M894.8,290.5h17v6.4h-3.1v-3.8h-7.9v8.4h8l-0.3,2.6h-7.7v8.9h8.1v-3.8h3.1v6.4h-17.3V313h2.8v-19.9h-3.1
				L894.8,290.5z"/>
			<path class="st1" d="M930.6,290.1c2,0,4,0.3,6.2,0.7v5.8h-3.1V293c-1-0.2-2-0.3-3.1-0.3c-3.5,0-5,1.2-5,4c0,2.1,1.3,3.4,4.1,4.1
				l2.5,0.7c3.9,1,5.7,3.2,5.7,7c0,5.2-2.7,7.5-8.8,7.5c-2.3,0-4.5-0.3-6.8-0.9v-5.9h3.1v3.7c1.2,0.3,2.3,0.4,3.7,0.4
				c3.8,0,5.4-1.5,5.4-4.7c0-2.3-1.2-3.6-3.9-4.3l-2.6-0.7c-4-1.1-5.8-3.1-5.8-6.8C922.1,292.3,925,290.1,930.6,290.1z"/>
			<path class="st1" d="M964.1,290.5h6.6l5.5,13c1.1,2.5,1.6,4.1,2,5.7h0.2c0.6-2,1.1-3.7,2-5.8l5.5-13h6.7v2.6h-2.8l0.8,19.9h3.1
				l-0.3,2.6h-8.8V313h2.8l-0.5-11.3c-0.1-2.7-0.1-4.4,0-6.1l-0.2,0c-0.6,2-1.2,3.6-2.1,5.7l-4.7,11.3h-3l-4.9-11.4
				c-1.1-2.6-1.7-4.2-2.2-5.7l-0.2,0c0.1,1.9,0.1,3.6,0,6.1l-0.5,11.4h3.1l-0.3,2.6h-8.7V313h2.8l0.8-19.9h-3.1L964.1,290.5z"/>
			<path class="st1" d="M1003.7,290.5h17v6.4h-3.1v-3.8h-7.9v8.4h8l-0.3,2.6h-7.7v8.9h8.1v-3.8h3.1v6.4h-17.3V313h2.8v-19.9h-3.1
				L1003.7,290.5z M1017.2,281.7l1.7,2.6l-8,4.3l-1.1-1.8L1017.2,281.7z"/>
			<path class="st1" d="M1031.6,290.5h9.4c9.2,0,12.4,3.3,12.4,12.6c0,9.3-3.2,12.5-12.4,12.5h-9.5V313h2.8v-19.9h-3.1L1031.6,290.5
				z M1037.6,313h3.4c6.6,0,8.9-2.5,8.9-9.9c0-7.5-2.3-10-8.9-10h-3.4V313z"/>
			<path class="st1" d="M1064.1,290.5h8.9v2.6h-2.8V313h3.1l-0.3,2.6h-8.9V313h2.8v-19.9h-3.1L1064.1,290.5z"/>
			<path class="st1" d="M1098,293.2c-1.2-0.2-2.4-0.4-3.6-0.4c-5.1,0-7.4,3.2-7.4,10.3c0,7,2.4,10.3,7.7,10.3c1.4,0,2.5-0.1,3.7-0.4
				v-3.8h3.1v5.9c-2.3,0.7-4.4,0.9-6.9,0.9c-7.6,0-11.1-4-11.1-12.8c0-9,3.4-13.1,10.9-13.1c2.2,0,4.3,0.3,6.7,0.8v5.8h-3.1V293.2z"
				/>
			<path class="st1" d="M1113.3,313l7.8-22.5h3.1l7.8,22.5h3.1l-0.3,2.6h-8.9V313h2.8l-1.8-5.2h-8.7l-1.7,5.2h3.1l-0.3,2.6h-8.7V313
				H1113.3z M1119.1,305.2h6.9l-1.8-5.3c-0.6-1.9-1.2-4-1.6-6.1h-0.2c-0.4,2-0.9,3.9-1.6,6.1L1119.1,305.2z"/>
			<path class="st1" d="M1151.7,290.1c2,0,4,0.3,6.2,0.7v5.8h-3.1V293c-1-0.2-2-0.3-3.1-0.3c-3.5,0-5,1.2-5,4c0,2.1,1.3,3.4,4.1,4.1
				l2.5,0.7c3.9,1,5.7,3.2,5.7,7c0,5.2-2.7,7.5-8.8,7.5c-2.3,0-4.5-0.3-6.8-0.9v-5.9h3.1v3.7c1.2,0.3,2.3,0.4,3.7,0.4
				c3.8,0,5.4-1.5,5.4-4.7c0-2.3-1.2-3.6-3.9-4.3l-2.6-0.7c-4-1.1-5.8-3.1-5.8-6.8C1143.2,292.3,1146.1,290.1,1151.7,290.1z"/>
			<path class="st1" d="M1180.2,290.5h8.8v2.6h-2.8V313h8.1v-4h3.1v6.6h-17.3V313h2.8v-19.9h-3.1L1180.2,290.5z"/>
			<path class="st1" d="M1222.3,290.5v7h-3.1v-4.3h-5.9V313h3.9l-0.3,2.6h-10.5V313h3.6v-19.9h-5.9v4.3h-3.1v-7H1222.3z"/>
			<path class="st1" d="M1231.4,290.5h9.4c9.2,0,12.4,3.3,12.4,12.6c0,9.3-3.2,12.5-12.4,12.5h-9.5V313h2.8v-19.9h-3.1L1231.4,290.5
				z M1237.5,313h3.4c6.6,0,8.9-2.5,8.9-9.9c0-7.5-2.3-10-8.9-10h-3.4V313z"/>
			<path class="st1" d="M1263.6,313l7.8-22.5h3.1l7.8,22.5h3.1l-0.3,2.6h-8.9V313h2.8l-1.8-5.2h-8.7l-1.7,5.2h3.1l-0.3,2.6h-8.7V313
				H1263.6z M1269.4,305.2h6.9l-1.8-5.3c-0.6-1.9-1.2-4-1.6-6.1h-0.2c-0.4,2-0.9,3.9-1.6,6.1L1269.4,305.2z"/>
		</g>
		<g>
			<path class="st1" d="M459.3,247.6h-18.2V79l-64.9,168.6h-17.6L295.8,80.8v166.7h-18.5V70.2H311l56.6,149.7l57.8-149.7h34V247.6z"
				/>
			<path class="st1" d="M663.7,247.6H540.4V70.5h123.3v16.2H558.8V151h104.9v16.2H558.8v64.1h104.9V247.6z"/>
			<path class="st1" d="M869.8,220.8L846.3,242c-4.2,3.7-9.1,5.6-14.9,5.6H734V70.5h96.5c5.8,0,10.6,1.8,14.6,5.3l24.4,21.5
				c4.2,3.7,6.3,8.2,6.3,13.3v97.2C875.8,212.9,873.8,217.2,869.8,220.8z M857.6,111.2c0-1.4-0.6-2.7-1.8-3.7l-22-19.2
				c-1.2-1.1-2.6-1.6-4.2-1.6h-76.6v144.7h76.9c1.6,0,3-0.5,4.2-1.6l21.7-20c1.2-1.1,1.8-2.3,1.8-3.7V111.2z"/>
			<path class="st1" d="M1084.6,70.2l-71.2,98.9v78.5H995v-78.5l-71.5-98.9h21.7l58.5,81.1l58.8-81.1H1084.6z"/>
			<path class="st1" d="M1285.4,247.6h-30.1l-93.5-161.4v161.4h-18.5V70.2h30.4l93.2,161.7V70.2h18.5V247.6z"/>
		</g>
		<path class="st1" d="M195.9,64.5c-0.1-0.1-0.1-0.1-0.2-0.2c-0.1-0.1-0.2-0.3-0.4-0.4c0,0,0,0,0,0c0,0,0,0,0,0l-14.4-7.6
			c-0.5-0.3-1.1-0.3-1.6,0L99.2,98.5L19.1,56.3c-0.5-0.3-1.1-0.3-1.6,0L3.1,63.8c0,0,0,0,0,0c0,0,0,0,0,0c-0.2,0.1-0.3,0.3-0.4,0.4
			c-0.1,0.1-0.2,0.1-0.2,0.2c-0.2,0.3-0.2,0.6-0.2,0.9V249c0,0.6,0.4,1.2,0.9,1.5l20.8,11c0.2,0.1,0.3,0.1,0.5,0.1
			c0.1,0,0.2,0.1,0.3,0.1c0,0,0,0,0,0c0.1,0,0.2,0,0.3-0.1c0.2,0,0.4,0,0.5-0.1l73.7-38.8l73.7,38.8c0.3,0.1,0.5,0.2,0.8,0.2
			c0.3,0,0.6-0.1,0.8-0.2l20.8-11c0.6-0.3,0.9-0.9,0.9-1.5V65.4C196.2,65.1,196.1,64.8,195.9,64.5z M151.1,120.1v5.8l-5.5-2.9
			L151.1,120.1z M151.1,116.2l-9.2,4.9l-10.4-5.5l19.6-10.3V116.2z M180.1,59.8l10.7,5.6l-77.3,40.7l-10.6-5.6L180.1,59.8z
			 M18.3,59.8l132.8,70.1v11.1L7.6,65.4L18.3,59.8z M5.6,68.2L152,145.3c0.3,0.1,0.5,0.2,0.8,0.2c0,0,0,0,0,0c0.3,0,0.6-0.1,0.9-0.2
			c0.5-0.3,0.8-0.9,0.8-1.5v-40.3l17.3-9.1v162.8L60.1,198.2l10.6-5.6l81.3,42.8c0.3,0.1,0.5,0.2,0.8,0.2c0,0,0,0,0,0
			c0.3,0,0.6-0.1,0.9-0.2c0.5-0.3,0.8-0.9,0.8-1.5v-30c0-0.6-0.4-1.2-0.9-1.5l-93.6-49.3l10.6-5.6l81.3,42.8
			c0.3,0.1,0.5,0.2,0.8,0.2c0,0,0,0,0,0c0.3,0,0.6-0.1,0.9-0.2c0.5-0.3,0.8-0.9,0.8-1.5v-30c0-0.6-0.4-1.2-0.9-1.5L25.4,89.9
			c-0.5-0.3-1.2-0.3-1.7,0.1c-0.5,0.3-0.8,0.9-0.8,1.5L23,257.1L5.6,248V68.2z M145.6,168.1l5.5-2.9v5.8L145.6,168.1z M151.1,161.2
			l-9.2,4.9l-10.4-5.5l10.5-5.5l9.1,4.8V161.2z M138.3,153.2l-10.5,5.5l-10.6-5.6l10.5-5.5L138.3,153.2z M123.9,145.6l-10.5,5.5
			l-10.6-5.6l10.4-5.5l8.2,4.3L123.9,145.6z M99.2,143.6l-10.4-5.5l10.4-5.5l10.4,5.5L99.2,143.6z M151.1,186l-76.7-40.4L85,140
			l66.1,34.9V186z M47.2,125.9v-5.8l5.5,2.9L47.2,125.9z M47.2,129.8l23.3-12.3l10.5,5.5l-33.9,17.8V129.8z M66.8,115.6l-10.4,5.5
			l-9.2-4.9v-10.9L66.8,115.6z M151.1,231.1l-76.7-40.4l10.6-5.6l66.1,34.9V231.1z M151.1,216.1l-19.6-10.4l10.5-5.5l9.1,4.8V216.1z
			 M138.3,198.2l-10.5,5.5l-10.6-5.6l10.5-5.5L138.3,198.2z M113.4,196.2l-10.6-5.6l10.4-5.5l10.6,5.6L113.4,196.2z M109.6,183.2
			l-10.4,5.5l-10.4-5.5l10.4-5.5L109.6,183.2z M47.2,171v-5.8l5.5,2.9L47.2,171z M47.2,174.9l23.3-12.3l10.5,5.5L47.2,186V174.9z
			 M66.8,160.6l-10.4,5.5l-9.2-4.9v-1.3l9.1-4.8L66.8,160.6z M47.2,205l9.1-4.8l9.5,5l1,0.5l-8.9,4.7l-10.7,5.6V205z M47.2,220
			l23.3-12.3l10.5,5.5l-33.9,17.8V220z M26.4,257.1V94.3l17.3,9.1v40.3c0,0.6,0.3,1.2,0.8,1.5c0.3,0.2,0.6,0.2,0.9,0.2c0,0,0,0,0,0
			c0.3,0,0.6-0.1,0.8-0.2L84.8,125l10.6,5.6l-50.8,26.7c-0.6,0.3-0.9,0.9-0.9,1.5v30c0,0.6,0.3,1.2,0.8,1.5c0.3,0.2,0.6,0.2,0.9,0.2
			c0,0,0,0,0,0c0.3,0,0.6-0.1,0.8-0.2l38.5-20.3l10.6,5.6l-50.8,26.7c-0.6,0.3-0.9,0.9-0.9,1.5v30c0,0.6,0.3,1.2,0.8,1.5
			c0.3,0.2,0.6,0.2,0.9,0.2c0,0,0,0,0,0c0.3,0,0.6-0.1,0.8-0.2l38.5-20.3l10.6,5.6L26.4,257.1z M192.7,248l-17.3,9.1
			c0,0,0-42.3,0-42.3l0-123.4c0-0.6-0.3-1.2-0.8-1.5c-0.3-0.2-0.6-0.2-0.9-0.2c0,0,0,0,0,0c-0.3,0-0.6,0.1-0.8,0.2l-45.1,23.7
			l-10.6-5.6l75.6-39.8V248z"/>
	</g>
	<g>
		<path class="st1" d="M1366,22.8c0,12.2-9.6,21.8-22.1,21.8c-12.4,0-22.2-9.6-22.2-21.8c0-12,9.9-21.6,22.2-21.6
			C1356.4,1.3,1366,10.9,1366,22.8z M1327.2,22.8c0,9.6,7.1,17.2,16.8,17.2c9.5,0,16.5-7.6,16.5-17.1c0-9.6-7-17.4-16.6-17.4
			C1334.3,5.6,1327.2,13.4,1327.2,22.8z M1340.5,34.2h-5V12.6c2-0.4,4.7-0.7,8.3-0.7c4.1,0,5.9,0.7,7.5,1.6c1.2,0.9,2.1,2.6,2.1,4.7
			c0,2.4-1.8,4.2-4.5,5v0.3c2.1,0.8,3.3,2.4,4,5.3c0.7,3.3,1,4.6,1.6,5.4h-5.4c-0.7-0.8-1.1-2.8-1.7-5.3c-0.4-2.4-1.7-3.4-4.5-3.4
			h-2.4V34.2z M1340.6,21.9h2.4c2.8,0,5-0.9,5-3.2c0-2-1.4-3.3-4.6-3.3c-1.3,0-2.2,0.1-2.8,0.3V21.9z"/>
	</g>
</g>
</svg>
