<svg width="298" height="180" viewBox="0 0 298 180" fill="none" xmlns="http://www.w3.org/2000/svg">
  <path d="M94.2014 104.51L93.0914 113.647H102.228L103.338 104.51H94.2014ZM65.1061 113.647H55.9695L54.8596 122.784H37.1825L38.2925 113.647H29.6081L21.787 179.289H66.4216L73.1841 122.773H73.143L74.253 113.647L75.3629 104.51H66.2264L65.1164 113.647H65.1061ZM0.666992 122.773H9.80358L10.9135 113.637H1.77695L0.666992 122.773ZM40.5226 95.3738L39.4127 104.51H48.5493L49.6592 95.3738H40.5226ZM75.3527 104.51H84.4893L85.5992 95.3738H76.4626L75.3527 104.51ZM121.611 104.51H112.475L111.365 113.647H120.501L121.611 104.51ZM256.954 86.2475L261.928 45.025H225.957L220.973 86.2475H177.695C182.638 77.0185 185.125 66.6589 185.125 55.1688C185.125 46.5152 183.995 39.1258 181.744 33.0005C179.483 26.8752 176.205 21.5515 171.878 17.05C166.102 11.0994 158.486 6.77261 149.031 4.06966C139.566 1.35643 127.346 -0.000183105 112.392 -0.000183105H43.1639L32.8866 86.2475H59.8955L58.7855 95.3841H67.9221L69.0321 86.2475H77.5109L83.184 37.5945H112.392C124.109 37.5945 131.868 39.578 135.65 43.545C138.713 46.7927 140.244 52.0239 140.244 59.2283C140.244 63.0104 139.607 67.0288 138.353 71.2631C137.089 75.4974 135.28 78.9712 132.947 81.6741C131.323 83.6576 129.566 84.9218 127.675 85.4562C126.596 85.7645 125.311 85.9803 123.852 86.1139L123.831 86.2578L122.721 95.3944H131.858L132.968 86.2578H160.367L159.257 95.3944H177.52L176.41 104.531H185.547L186.657 95.3944H195.793L194.683 104.531H185.547L184.437 113.668H175.3L174.19 122.804H216.553L211.579 164.294H247.55L252.555 122.804H292.925L294.035 113.668L295.145 104.531L297.354 86.2681H256.964L256.954 86.2475ZM149.011 104.51L147.901 113.647H157.037L158.147 104.51H149.011ZM167.273 104.51L166.164 113.647H175.3L176.41 104.51H167.273ZM131.847 95.3738L130.737 104.51H149L150.11 95.3738H131.847ZM137.654 122.773L138.764 113.637H120.501L119.391 122.773H110.255L111.365 113.637H102.228L101.118 122.763H102.649C104.993 122.763 106.658 122.948 107.654 123.308C108.641 123.667 109.587 124.932 110.491 127.09L131.58 174.952C132.485 176.935 133.43 178.158 134.417 178.6C135.403 179.052 136.986 179.278 139.144 179.278H180.521L153.82 122.773H137.644H137.654ZM155.917 122.773H165.054L166.164 113.637H157.027L155.917 122.773Z" fill="#F9FAFA"/>
</svg>
