<svg aria-hidden="true" style="position: absolute; width: 0; height: 0; overflow: hidden;" version="1.1" xmlns="http://www.w3.org/2000/svg" xmlns:xlink="http://www.w3.org/1999/xlink">
<defs>

<symbol id="icon-android" viewBox="0 0 27 32">
<path d="M13.334 1.526c8.344 0.026 8.616 7.32 8.616 7.32h-17.231c0 0 0.192-7.346 8.616-7.32zM10.286 5.829c0.405-0.405 0.405-1.061 0-1.465s-1.062-0.405-1.467 0c-0.405 0.405-0.405 1.061 0 1.465s1.062 0.405 1.467 0zM18.149 5.264c0.092-0.565-0.292-1.097-0.858-1.189s-1.098 0.292-1.19 0.857c-0.092 0.565 0.292 1.097 0.858 1.189s1.098-0.292 1.19-0.857z"></path>
<path d="M9.267 2.513c0.030 0.043 0.124 0.029 0.21-0.031 0.085-0.060 0.128-0.145 0.099-0.188l-1.61-2.269c-0.031-0.043-0.128-0.029-0.21 0.031-0.086 0.064-0.128 0.145-0.099 0.188l1.609 2.269z"></path>
<path d="M17.4 2.513c-0.031 0.043-0.124 0.029-0.211-0.031-0.085-0.060-0.128-0.145-0.099-0.188l1.609-2.269c0.031-0.043 0.128-0.029 0.21 0.031 0.086 0.064 0.128 0.145 0.099 0.188l-1.609 2.269z"></path>
<path d="M22.021 9.867h-17.375v7.144h0.016v7.494c0 0.275 0.109 0.539 0.304 0.734s0.459 0.304 0.734 0.304h15.265c0.275 0 0.54-0.109 0.734-0.304s0.304-0.458 0.304-0.734v-7.494h0.017v-7.144z"></path>
<path d="M26.643 19.418c0 0.243-0.048 0.483-0.141 0.707s-0.229 0.428-0.401 0.599c-0.172 0.171-0.376 0.307-0.6 0.4s-0.465 0.14-0.708 0.14v0c-0.49 0-0.96-0.194-1.306-0.541s-0.541-0.816-0.541-1.305v-8.295c0.001-0.489 0.196-0.958 0.542-1.303s0.816-0.54 1.305-0.54v0c0.49 0 0.96 0.195 1.307 0.541s0.541 0.816 0.541 1.305l0.003 8.292z"></path>
<path d="M3.72 19.418c0 0.242-0.048 0.483-0.141 0.706s-0.229 0.427-0.401 0.599c-0.172 0.171-0.375 0.307-0.6 0.4s-0.465 0.14-0.707 0.14v0c-0.49 0-0.96-0.194-1.306-0.541s-0.541-0.816-0.541-1.305v-8.295c0.001-0.489 0.196-0.958 0.542-1.303s0.816-0.54 1.305-0.54v0c0.49 0 0.96 0.195 1.307 0.541s0.541 0.816 0.541 1.306v8.292z"></path>
<path d="M18.747 30.154c0 0.242-0.048 0.482-0.141 0.706s-0.229 0.427-0.401 0.599c-0.172 0.171-0.375 0.307-0.6 0.4s-0.465 0.141-0.707 0.14v0c-0.489-0.001-0.959-0.195-1.304-0.542s-0.54-0.815-0.54-1.304v-8.296c0-0.242 0.048-0.482 0.141-0.706s0.229-0.427 0.401-0.599c0.172-0.171 0.375-0.307 0.599-0.4s0.464-0.14 0.707-0.14c0.243-0 0.483 0.048 0.707 0.14s0.428 0.229 0.6 0.4c0.172 0.171 0.308 0.375 0.401 0.599s0.141 0.464 0.141 0.706l-0.003 8.296z"></path>
<path d="M11.615 30.154c0 0.242-0.048 0.482-0.141 0.706s-0.229 0.427-0.401 0.599-0.375 0.307-0.599 0.4c-0.224 0.093-0.464 0.141-0.707 0.141v0c-0.49 0-0.96-0.194-1.306-0.541s-0.541-0.816-0.541-1.305v-8.296c0-0.49 0.195-0.959 0.541-1.305s0.816-0.541 1.306-0.541v0c0.243 0 0.483 0.048 0.707 0.14s0.428 0.229 0.599 0.4c0.172 0.171 0.308 0.375 0.401 0.599s0.141 0.464 0.141 0.706v8.296z"></path>
</symbol>

<symbol id="icon-apple" viewBox="0 0 27 32">
<path d="M22.14 17.002c-0.038-4.051 3.331-5.997 3.487-6.091-1.897-2.752-4.849-3.128-5.902-3.173-2.513-0.252-4.904 1.468-6.178 1.468s-3.242-1.43-5.325-1.39c-2.741 0.039-5.265 1.578-6.678 4.010-2.845 4.898-0.727 12.152 2.046 16.124 1.356 1.942 2.971 4.128 5.094 4.049 2.044-0.079 2.819-1.31 5.287-1.31s3.166 1.312 5.324 1.269c2.2-0.038 3.593-1.98 4.939-3.929 0.961-1.402 1.715-2.935 2.237-4.552-0.048-0.022-4.289-1.633-4.332-6.475z"></path>
<path d="M18.079 5.11c1.128-1.354 1.886-3.235 1.678-5.11-1.622 0.064-3.588 1.073-4.754 2.425-1.044 1.198-1.958 3.112-1.711 4.95 1.809 0.139 3.659-0.913 4.786-2.265z"></path>
</symbol>

<symbol id="icon-windows" viewBox="0 0 32 32">
<path d="M14.66 2.511c5.763-0.881 11.534-1.718 17.312-2.511 0.004 5.056 0.005 10.11 0.004 15.163-5.77 0.022-11.541 0.109-17.316 0.128-0.003-4.262-0.003-8.522 0-12.78z"></path>
<path d="M0.024 4.551c4.34-0.669 8.698-1.247 13.056-1.792 0.004 4.194 0.006 8.386 0.006 12.575-4.356-0.003-8.708 0.064-13.063 0.051v-10.835h0.001z"></path>
<path d="M0.024 16.704c4.351-0.014 8.701 0.055 13.052 0.048 0 4.204 0.011 8.407 0.004 12.611-4.347-0.642-8.701-1.203-13.056-1.794v-10.865z"></path>
<path d="M14.635 16.874h17.337c0.008 5.041 0.008 10.083 0 15.126-5.766-0.863-11.538-1.664-17.312-2.445-0.007-4.226-0.015-8.453-0.026-12.681z"></path>
</symbol>

<symbol id="icon-bg_CIR" viewBox="0 0 48 32">
<path d="M6.72 24.609l18.797-32.432c3.66-3.43 9.581-7.901 5.323 0.332-5.323 10.291-0.832 16.267-3.826 24.732-2.395 6.772-14.583 7.589-20.294 7.368z"></path>
<path d="M9.28 29.082l23.027-40.046c4.483-4.236 11.737-9.756 6.521 0.41-6.521 12.707-1.019 20.086-4.687 30.539-2.934 8.362-17.864 9.371-24.86 9.098z"></path>
<path d="M18.88 21.413l16.447-28.484c3.202-3.013 8.384-6.939 4.658 0.292-4.658 9.038-0.728 14.287-3.348 21.721-2.096 5.948-12.76 6.665-17.757 6.471z"></path>
</symbol>

<symbol id="icon-bg_CLM" viewBox="0 0 48 32">
<path d="M26.454 7.15c-1.048-1.049-2.292-1.882-3.661-2.45s-2.837-0.86-4.319-0.86-2.95 0.292-4.319 0.86c-1.369 0.568-2.613 1.4-3.661 2.45l-2.174 2.177-2.174-2.177c-2.116-2.119-4.987-3.309-7.98-3.309s-5.863 1.19-7.98 3.309c-2.116 2.119-3.305 4.992-3.305 7.988s1.189 5.87 3.305 7.988l18.134 18.153 18.134-18.153c1.048-1.049 1.88-2.294 2.447-3.665s0.859-2.84 0.859-4.323c0-1.484-0.292-2.953-0.859-4.323s-1.399-2.616-2.447-3.665v0z"></path>
<path d="M19.613 13.67c-0.68-0.682-1.488-1.222-2.377-1.591s-1.842-0.559-2.804-0.559c-0.962 0-1.915 0.19-2.804 0.559s-1.697 0.91-2.377 1.591l-1.412 1.414-1.412-1.414c-1.374-1.376-3.238-2.149-5.181-2.149s-3.807 0.773-5.181 2.149c-1.374 1.376-2.146 3.243-2.146 5.189s0.772 3.813 2.146 5.189l11.774 11.792 11.774-11.792c0.681-0.681 1.22-1.49 1.589-2.381s0.558-1.845 0.558-2.808c0-0.964-0.19-1.918-0.558-2.808s-0.908-1.699-1.589-2.381v0z"></path>
<path d="M11.491 18.281c-0.516-0.52-1.129-0.933-1.803-1.214s-1.397-0.426-2.127-0.426-1.453 0.145-2.127 0.426c-0.674 0.282-1.287 0.694-1.803 1.214l-1.071 1.079-1.071-1.079c-1.042-1.050-2.456-1.64-3.93-1.64s-2.888 0.59-3.93 1.64c-1.042 1.050-1.628 2.475-1.628 3.96s0.586 2.91 1.628 3.96l8.932 8.999 8.932-8.999c0.516-0.52 0.926-1.137 1.205-1.817s0.423-1.408 0.423-2.143-0.144-1.464-0.423-2.143c-0.279-0.679-0.689-1.297-1.205-1.817v0z"></path>
</symbol>

<symbol id="icon-bg_GO" viewBox="0 0 48 32">
<path d="M31.040 4.16c0 20.501-16.619 37.12-37.12 37.12s-37.12-16.619-37.12-37.12c0-20.501 16.619-37.12 37.12-37.12s37.12 16.619 37.12 37.12z"></path>
<path d="M26.88 1.76c0 14.757-11.963 26.72-26.72 26.72s-26.72-11.963-26.72-26.72c0-14.757 11.963-26.72 26.72-26.72s26.72 11.963 26.72 26.72z"></path>
<path d="M22.4 0.8c0 10.339-8.381 18.72-18.72 18.72s-18.72-8.381-18.72-18.72c0-10.339 8.381-18.72 18.72-18.72s18.72 8.381 18.72 18.72z"></path>
</symbol>

<symbol id="icon-bg_PED" viewBox="0 0 48 32">
<path d="M24.96 16.32c0 12.018-9.742 21.76-21.76 21.76s-21.76-9.742-21.76-21.76c0-12.018 9.742-21.76 21.76-21.76s21.76 9.742 21.76 21.76z"></path>
<path d="M40.32 3.36c0 12.106-9.814 21.92-21.92 21.92s-21.92-9.814-21.92-21.92c0-12.106 9.814-21.92 21.92-21.92s21.92 9.814 21.92 21.92z"></path>
<path d="M37.44 38.24c0 12.106-9.814 21.92-21.92 21.92s-21.92-9.814-21.92-21.92c0-12.106 9.814-21.92 21.92-21.92s21.92 9.814 21.92 21.92z"></path>
</symbol>

<symbol id="icon-bg_PRE" viewBox="0 0 48 32">
<path d="M2.24 6.116c0-5.081 4.066-9.213 9.12-9.314 5.054 0.101 9.12 4.232 9.12 9.314 0 8.175-8.17 9.696-18.24 23.004v-23.004z"></path>
<path d="M-2.24 6.949c0-6.033 12.212-11.615 18.471-11.746 6.079 0.123 10.969 5.025 10.969 11.053 0 9.702-17.322 18.591-29.44 34.384v-33.691z"></path>
<path d="M22.56 8.32c0-5.587-11.216-10.756-16.965-10.878-5.584 0.114-10.075 4.653-10.075 10.236 0 8.984 15.91 17.216 27.040 31.842v-31.2z"></path>
<path d="M19.2 3.838c0-5.585-4.494-10.125-10.080-10.236-5.586 0.111-10.080 4.652-10.080 10.236 0 8.984 9.030 10.656 20.16 25.282v-25.282z"></path>
</symbol>

<symbol id="icon-busca" viewBox="0 0 32 32">
<path fill="none" stroke-linejoin="round" stroke-linecap="round" stroke-miterlimit="4" stroke-width="2.6667" d="M28 28l-5.8-5.8M25.333 14.667c0 5.891-4.776 10.667-10.667 10.667s-10.667-4.776-10.667-10.667c0-5.891 4.776-10.667 10.667-10.667s10.667 4.776 10.667 10.667z"></path>
</symbol>

<symbol id="icon-imed" viewBox="0 0 33 32">
<path stroke-linejoin="round" stroke-linecap="round" stroke-miterlimit="4" stroke-width="2.6667" d="M5.889 26c0-0.884 0.351-1.732 0.976-2.357s1.473-0.976 2.357-0.976h18M5.889 26c0 0.884 0.351 1.732 0.976 2.357s1.473 0.976 2.357 0.976h18v-26.667h-18c-0.884 0-1.732 0.351-2.357 0.976s-0.976 1.473-0.976 2.357v20z"></path>
</symbol>

<symbol id="icon-medplanner" viewBox="0 0 33 32">
<path stroke-linejoin="round" stroke-linecap="round" stroke-miterlimit="4" stroke-width="2.6667" d="M21.667 2.667v5.333M11 2.667v5.333M4.333 13.333h24M7 5.333h18.667c1.473 0 2.667 1.194 2.667 2.667v18.667c0 1.473-1.194 2.667-2.667 2.667h-18.667c-1.473 0-2.667-1.194-2.667-2.667v-18.667c0-1.473 1.194-2.667 2.667-2.667z"></path>
</symbol>

<symbol id="icon-medsmart" viewBox="0 0 33 32">
<path stroke-linejoin="round" stroke-linecap="round" stroke-miterlimit="4" stroke-width="2.6667" d="M3 22.667l6.667 6.667M9.667 22.667l-6.667 6.667M21.667 5.333l2.667 2.667 5.333-5.333M4.538 15.49c0.119-2.024 0.749-3.984 1.831-5.698s2.58-3.127 4.355-4.105c1.775-0.979 3.769-1.492 5.796-1.491M16.521 28.18c2.027 0 4.021-0.513 5.796-1.491s3.274-2.391 4.355-4.105 1.711-3.675 1.831-5.698"></path>
</symbol>

<symbol id="icon-mentoria" viewBox="0 0 33 32">
<path stroke-linejoin="round" stroke-linecap="round" stroke-miterlimit="4" stroke-width="2.6667" d="M11.222 16h6.667M11.222 10.667h10.667M28.556 20c0 0.707-0.281 1.386-0.781 1.886s-1.178 0.781-1.886 0.781h-16l-5.333 5.333v-21.333c0-0.707 0.281-1.386 0.781-1.886s1.178-0.781 1.886-0.781h18.667c0.707 0 1.386 0.281 1.886 0.781s0.781 1.178 0.781 1.886v13.333z"></path>
</symbol>

<symbol id="icon-recursos" viewBox="0 0 33 32">
<path d="M4.111 26.667c0 0.736 0.597 1.333 1.333 1.333s1.333-0.597 1.333-1.333h-2.667zM25.445 26.667c0 0.736 0.597 1.333 1.333 1.333s1.333-0.597 1.333-1.333h-2.667zM6.778 5.333c0-0.736-0.597-1.333-1.333-1.333s-1.333 0.597-1.333 1.333h2.667zM28.111 5.333c0-0.736-0.597-1.333-1.333-1.333s-1.333 0.597-1.333 1.333h2.667zM2.778 2.667c-0.736 0-1.333 0.597-1.333 1.333s0.597 1.333 1.333 1.333v-2.667zM29.445 5.333c0.736 0 1.333-0.597 1.333-1.333s-0.597-1.333-1.333-1.333v2.667zM2.778 26.667c-0.736 0-1.333 0.597-1.333 1.333s0.597 1.333 1.333 1.333v-2.667zM29.445 29.333c0.736 0 1.333-0.597 1.333-1.333s-0.597-1.333-1.333-1.333v2.667zM6.778 26.667c0-5.155 4.179-9.333 9.333-9.333v-2.667c-6.627 0-12 5.373-12 12h2.667zM16.111 17.333c5.155 0 9.333 4.179 9.333 9.333h2.667c0-6.627-5.373-12-12-12v2.667zM4.111 5.333c0 6.627 5.373 12 12 12v-2.667c-5.155 0-9.333-4.179-9.333-9.333h-2.667zM16.111 17.333c6.627 0 12-5.373 12-12h-2.667c0 5.155-4.179 9.333-9.333 9.333v2.667zM2.778 5.333h26.667v-2.667h-26.667v2.667zM2.778 29.333h26.667v-2.667h-26.667v2.667z"></path>
</symbol>

<symbol id="icon-rmaster" viewBox="0 0 32 32">
<path stroke-linejoin="round" stroke-linecap="round" stroke-miterlimit="4" stroke-width="2.6667" d="M16 2.667l4.12 8.347 9.213 1.347-6.667 6.493 1.573 9.173-8.24-4.333-8.24 4.333 1.573-9.173-6.667-6.493 9.213-1.347 4.12-8.347z"></path>
</symbol>

<symbol id="icon-select" viewBox="0 0 32 32">
<path fill="none" stroke-linejoin="round" stroke-linecap="round" stroke-miterlimit="4" stroke-width="2.6667" d="M8 12l8 8 8-8"></path>
</symbol>

<symbol id="icon-smartcards" viewBox="0 0 33 32">
<path stroke-linejoin="round" stroke-linecap="round" stroke-miterlimit="4" stroke-width="2.6667" d="M2.778 22.667l13.333 6.667 13.333-6.667M2.778 16l13.333 6.667 13.333-6.667M16.112 2.667l-13.333 6.667 13.333 6.667 13.333-6.667-13.333-6.667z"></path>
</symbol>

<symbol id="icon-rmais" viewBox="0 0 53 32">
<path d="M16.747 18.58l-0.197 1.624h1.624l0.197-1.624h-1.624zM11.574 20.204h-1.624l-0.197 1.624h-3.143l0.197-1.624h-1.544l-1.39 11.67h7.935l1.202-10.047h-0.007l0.197-1.622 0.197-1.624h-1.624l-0.197 1.624h-0.002zM0.119 21.826h1.624l0.197-1.624h-1.624l-0.197 1.624zM7.204 16.955l-0.197 1.624h1.624l0.197-1.624h-1.624zM13.396 18.58h1.624l0.197-1.624h-1.624l-0.197 1.624zM21.62 18.58h-1.624l-0.197 1.624h1.624l0.197-1.624zM45.681 15.333l0.884-7.328h-6.395l-0.886 7.328h-7.694c0.879-1.641 1.321-3.482 1.321-5.525 0-1.538-0.201-2.852-0.601-3.941-0.402-1.089-0.985-2.035-1.754-2.836-1.027-1.058-2.381-1.827-4.062-2.308-1.683-0.482-3.855-0.724-6.514-0.724h-12.307l-1.827 15.333h4.802l-0.197 1.624h1.624l0.197-1.624h1.507l1.009-8.649h5.193c2.083 0 3.462 0.353 4.135 1.058 0.545 0.577 0.817 1.507 0.817 2.788 0 0.672-0.113 1.387-0.336 2.14-0.225 0.753-0.546 1.37-0.961 1.851-0.289 0.353-0.601 0.577-0.937 0.672-0.192 0.055-0.42 0.093-0.68 0.117l-0.004 0.026-0.197 1.624h1.624l0.197-1.624h4.871l-0.197 1.624h3.247l-0.197 1.624h1.624l0.197-1.624h1.624l-0.197 1.624h-1.624l-0.197 1.624h-1.624l-0.197 1.624h7.531l-0.884 7.376h6.395l0.89-7.376h7.177l0.395-3.249 0.393-3.247-7.182-0.004zM26.491 18.58l-0.197 1.624h1.624l0.197-1.624h-1.624zM29.737 18.58l-0.197 1.624h1.624l0.197-1.624h-1.624zM23.439 16.955l-0.197 1.624h3.247l0.197-1.624h-3.247zM24.472 21.826l0.197-1.624h-3.247l-0.197 1.624h-1.624l0.197-1.624h-1.624l-0.197 1.622h0.272c0.417 0 0.713 0.033 0.89 0.097 0.175 0.064 0.344 0.289 0.504 0.672l3.749 8.509c0.161 0.353 0.329 0.57 0.504 0.649 0.175 0.080 0.457 0.121 0.84 0.121h7.356l-4.747-10.045h-2.874zM27.719 21.826h1.624l0.197-1.624h-1.624l-0.197 1.624z"></path>
</symbol>

<symbol id="icon-fechar" viewBox="0 0 32 32">
<path stroke-linejoin="round" stroke-linecap="round" stroke-miterlimit="4" stroke-width="2.6667" d="M24 8l-16 16M8 8l16 16"></path>
</symbol>

<symbol id="icon-menu" viewBox="0 0 32 32">
<path stroke-linejoin="miter" stroke-linecap="round" stroke-miterlimit="10" stroke-width="2" d="M5 10h22M5 16h22M5 22h22"></path>
</symbol>
</defs>
</svg>
